<?xml version="1.0" encoding="UTF-8" standalone="no"?>
<!-- Created with Inkscape (http://www.inkscape.org/) -->

<svg
   id="svg2"
   viewBox="0 0 108.00001 108.00001"
   version="1.0"
   sodipodi:docname="icon-inkscape.svg"
   width="1024"
   height="1024"
   inkscape:version="1.4.2 (ebf0e940d0, 2025-05-08)"
   inkscape:export-filename="icon-fg.svg"
   inkscape:export-xdpi="9.2159996"
   inkscape:export-ydpi="9.2159996"
   xmlns:inkscape="http://www.inkscape.org/namespaces/inkscape"
   xmlns:sodipodi="http://sodipodi.sourceforge.net/DTD/sodipodi-0.dtd"
   xmlns:xlink="http://www.w3.org/1999/xlink"
   xmlns="http://www.w3.org/2000/svg"
   xmlns:svg="http://www.w3.org/2000/svg"
   xmlns:rdf="http://www.w3.org/1999/02/22-rdf-syntax-ns#"
   xmlns:cc="http://creativecommons.org/ns#"
   xmlns:dc="http://purl.org/dc/elements/1.1/">
  <defs
     id="defs1">
    <linearGradient
       id="linearGradient21"
       inkscape:collect="always">
      <stop
         style="stop-color:#000000;stop-opacity:1;"
         offset="0"
         id="stop21" />
      <stop
         style="stop-color:#000000;stop-opacity:0.20295699;"
         offset="0.1968085"
         id="stop26" />
      <stop
         style="stop-color:#000000;stop-opacity:0;"
         offset="0.55366081"
         id="stop22" />
    </linearGradient>
    <filter
       inkscape:collect="always"
       style="color-interpolation-filters:sRGB"
       id="filter2"
       x="-0.17708664"
       y="-0.25500475"
       width="1.3541733"
       height="1.5100095">
      <feGaussianBlur
         inkscape:collect="always"
         stdDeviation="1.0949409"
         id="feGaussianBlur2" />
    </filter>
    <filter
       inkscape:label="Button"
       inkscape:menu="Bevels"
       inkscape:menu-tooltip="Soft bevel, slightly depressed middle"
       style="color-interpolation-filters:sRGB;"
       id="filter10"
       x="-0.62123572"
       y="-0.89457938"
       width="2.2424714"
       height="2.7891588">
      <feGaussianBlur
         stdDeviation="2.3"
         in="SourceAlpha"
         result="result0"
         id="feGaussianBlur7" />
      <feMorphology
         in="SourceAlpha"
         radius="6.5"
         result="result1"
         id="feMorphology7" />
      <feGaussianBlur
         stdDeviation="7"
         in="result1"
         id="feGaussianBlur8" />
      <feColorMatrix
         values="1 0 0 0 0 0 1 0 0 0 0 0 1 0 0 0 0 0 0.3 0"
         result="result91"
         id="feColorMatrix8" />
      <feComposite
         in="result0"
         operator="out"
         result="result2"
         in2="result91"
         id="feComposite8" />
      <feDiffuseLighting
         surfaceScale="10"
         id="feDiffuseLighting8">
        <feDistantLight
           azimuth="225"
           elevation="45"
           id="feDistantLight8" />
      </feDiffuseLighting>
      <feBlend
         in2="SourceGraphic"
         mode="multiply"
         id="feBlend8" />
      <feComposite
         in2="SourceAlpha"
         operator="in"
         result="result3"
         id="feComposite9" />
      <feGaussianBlur
         stdDeviation="1"
         in="result3"
         result="result4"
         id="feGaussianBlur9" />
      <feComposite
         in2="result3"
         operator="atop"
         id="feComposite10" />
    </filter>
    <filter
       inkscape:collect="always"
       style="color-interpolation-filters:sRGB"
       id="filter14"
       x="-0.69259881"
       y="-0.084119537"
       width="2.3851976"
       height="1.1682391">
      <feGaussianBlur
         inkscape:collect="always"
         stdDeviation="0.99126565"
         id="feGaussianBlur14" />
    </filter>
    <filter
       inkscape:collect="always"
       style="color-interpolation-filters:sRGB"
       id="filter15"
       x="-0.27703954"
       y="-0.19453974"
       width="1.5540791"
       height="1.3890795">
      <feGaussianBlur
         inkscape:collect="always"
         stdDeviation="0.99126565"
         id="feGaussianBlur15" />
    </filter>
    <filter
       inkscape:collect="always"
       style="color-interpolation-filters:sRGB"
       id="filter16"
       x="-0.69259881"
       y="-0.068319766"
       width="2.3851976"
       height="1.1366395">
      <feGaussianBlur
         inkscape:collect="always"
         stdDeviation="0.99126565"
         id="feGaussianBlur16" />
    </filter>
    <filter
       inkscape:collect="always"
       style="color-interpolation-filters:sRGB"
       id="filter17"
       x="-0.27703954"
       y="-0.12640896"
       width="1.5540791"
       height="1.2528179">
      <feGaussianBlur
         inkscape:collect="always"
         stdDeviation="0.99126565"
         id="feGaussianBlur17" />
    </filter>
    <filter
       inkscape:collect="always"
       style="color-interpolation-filters:sRGB"
       id="filter18"
       x="-0.69259881"
       y="-0.093720128"
       width="2.3851976"
       height="1.1874403">
      <feGaussianBlur
         inkscape:collect="always"
         stdDeviation="0.99126565"
         id="feGaussianBlur18" />
    </filter>
    <filter
       inkscape:collect="always"
       style="color-interpolation-filters:sRGB"
       id="filter19"
       x="-0.27703954"
       y="-0.19453974"
       width="1.5540791"
       height="1.3890795">
      <feGaussianBlur
         inkscape:collect="always"
         stdDeviation="0.99126565"
         id="feGaussianBlur19" />
    </filter>
    <linearGradient
       inkscape:collect="always"
       xlink:href="#linearGradient21"
       id="linearGradient22"
       x1="67.819351"
       y1="67.114235"
       x2="93.751038"
       y2="94.922562"
       gradientUnits="userSpaceOnUse" />
  </defs>
  <sodipodi:namedview
     id="namedview1"
     pagecolor="#ffffff"
     bordercolor="#666666"
     borderopacity="1.0"
     inkscape:showpageshadow="2"
     inkscape:pageopacity="0.0"
     inkscape:pagecheckerboard="0"
     inkscape:deskcolor="#d1d1d1"
     showgrid="false"
     inkscape:zoom="0.41865106"
     inkscape:cx="561.32665"
     inkscape:cy="580.43565"
     inkscape:window-width="2560"
     inkscape:window-height="1371"
     inkscape:window-x="0"
     inkscape:window-y="0"
     inkscape:window-maximized="1"
     inkscape:current-layer="layer1"
     showguides="true"
     inkscape:document-units="px">
    <inkscape:page
       x="0"
       y="0"
       width="108.00001"
       height="108.00001"
       id="page1"
       margin="0"
       bleed="0"
       inkscape:export-filename="icon-fg.png"
       inkscape:export-xdpi="96"
       inkscape:export-ydpi="96" />
    <inkscape:page
       x="208.44101"
       y="-218.23956"
       width="246.20956"
       height="499.12372"
       id="page2"
       margin="0"
       bleed="0"
       inkscape:export-filename="splash2.png"
       inkscape:export-xdpi="96"
       inkscape:export-ydpi="96" />
    <sodipodi:guide
       position="21.000002,122.8706"
       orientation="-1,0"
       id="guide6"
       inkscape:locked="false"
       inkscape:label=""
       inkscape:color="rgb(0,134,229)" />
    <sodipodi:guide
       position="87.000008,108.81004"
       orientation="-1,0"
       id="guide7"
       inkscape:locked="false"
       inkscape:label=""
       inkscape:color="rgb(0,134,229)" />
    <sodipodi:guide
       position="-2.0021476,87.000008"
       orientation="0,1"
       id="guide8"
       inkscape:locked="false"
       inkscape:label=""
       inkscape:color="rgb(0,134,229)" />
    <sodipodi:guide
       position="-2.7758784,21.000002"
       orientation="0,1"
       id="guide9"
       inkscape:locked="false"
       inkscape:label=""
       inkscape:color="rgb(0,134,229)" />
    <sodipodi:guide
       position="54.000005,116.31427"
       orientation="-1,0"
       id="guide13"
       inkscape:locked="false"
       inkscape:label=""
       inkscape:color="rgb(0,134,229)" />
    <inkscape:page
       x="21.000002"
       y="21.000002"
       width="66.000008"
       height="66"
       id="page3"
       margin="0"
       bleed="0"
       inkscape:export-filename="icon-play.png"
       inkscape:export-xdpi="78.545448"
       inkscape:export-ydpi="78.545448" />
  </sodipodi:namedview>
  <rect
     style="fill:#7166ff;fill-opacity:1;stroke:none;stroke-width:1.51181;stroke-linecap:round"
     id="rect1"
     width="108.00001"
     height="108"
     x="0"
     y="0"
     ry="0"
     rx="0"
     inkscape:label="bg"
     sodipodi:insensitive="true" />
  <path
     id="path2396"
     style="fill:#e6e6e6;stroke-width:0.999995"
     d="m 139.38386,21.000006 c -0.0539,0 -1.14967,1.11928 -2.43536,2.487312 l -2.33629,2.487292 -3.93024,-2.359856 c -3.71069,-2.227827 -3.93287,-2.342317 -3.9714,-2.047038 -0.0219,0.172171 0.0796,1.752062 0.22477,3.511322 0.14647,1.75913 0.26442,3.42554 0.26442,3.703225 0,0.777075 -0.8347,1.936914 -2.76903,3.841699 -2.31297,2.279836 -2.29683,2.243871 -2.30542,5.137665 -0.007,2.269557 -0.0151,2.333777 -0.42797,3.532131 -0.55231,1.600378 -1.18742,2.740938 -3.25494,5.844078 -1.98957,2.984983 -2.51396,3.94056 -3.06253,5.578187 -1.14672,3.42295 -0.22662,6.375766 2.41531,7.751375 0.96794,0.503492 1.88685,0.73478 2.9253,0.73478 h 0.69991 l 4.9e-4,0.417443 c 0.001,0.84256 0.79692,1.637627 1.64065,1.637627 0.63836,0 1.5347,-0.385221 2.14737,-0.924677 0.76166,-0.67175 1.3769,-1.586391 2.45067,-3.644033 1.92149,-3.682416 2.78866,-4.465878 7.8698,-7.107918 2.66003,-1.38332 4.15125,-2.259237 5.62959,-3.309877 l 0.79248,-0.563949 0.10659,0.743813 c 0.18748,1.31653 0.11169,4.492734 -0.13626,5.657694 -0.48295,2.272127 -1.47967,4.582845 -2.78207,6.451665 -1.5241,2.183567 -5.15709,6.076159 -6.60017,8.936974 -1.5914,3.415712 -1.95132,6.041855 -1.79929,7.8485 0.113,0.908788 0.66752,1.860649 2.20599,1.869722 8.99458,0.02859 31.42712,0.06797 35.01662,0.04737 1.82392,-0.0136 2.52987,-1.57 2.48872,-3.209522 -0.15156,-4.703524 -2.46275,-22.771814 -5.15873,-30.84179 -1.92791,-5.767027 -3.90849,-9.28642 -6.94612,-12.336907 -3.28939,-3.303508 -7.19786,-5.061296 -11.75239,-5.284909 -1.19065,-0.05858 -3.01443,0.06294 -3.87884,0.258143 -0.0592,0.01323 -0.81043,-1.522097 -1.67098,-3.411725 -0.85929,-1.889628 -1.60677,-3.43582 -1.66072,-3.43582 z m -9.98706,14.281586 c 0.54499,-0.0189 1.01399,0.123978 1.01399,0.392856 0,0.399452 -1.04161,1.908602 -1.92915,2.794857 -0.73339,0.732114 -1.22918,1.094466 -2.05505,1.502915 -0.59853,0.295412 -1.22387,0.575174 -1.38827,0.620135 -0.3622,0.100169 -0.41113,0.20568 1.03255,-2.223139 1.18294,-1.989567 1.64268,-2.552288 2.34782,-2.873384 0.2967,-0.134373 0.65111,-0.203165 0.97811,-0.21424 z m -10.57083,17.571903 c 0.72286,-0.0012 1.43843,0.721927 1.43843,1.451489 0,0.169526 -0.13002,0.50198 -0.28898,0.737028 -0.15894,0.236332 -0.91856,0.861875 -1.68805,1.389765 l -1.39882,0.960811 0.0618,-1.281907 c 0.0491,-1.017263 0.13021,-1.430664 0.39486,-2.008654 0.35026,-0.765508 0.92197,-1.247248 1.48084,-1.248532 z"
     sodipodi:nodetypes="scccccsccccccscssccccccccccccccccccssccccccscscccccccs" />
  <metadata
     id="metadata1">
    <rdf:RDF>
      <cc:Work>
        <dc:format>image/svg+xml</dc:format>
        <dc:type
           rdf:resource="http://purl.org/dc/dcmitype/StillImage" />
        <cc:license
           rdf:resource="http://creativecommons.org/publicdomain/zero/1.0/" />
        <dc:publisher>
          <cc:Agent
             rdf:about="http://openclipart.org/">
            <dc:title>Openclipart</dc:title>
          </cc:Agent>
        </dc:publisher>
        <dc:date>2008-08-26T08:54:36</dc:date>
        <dc:description>A light and dark (black and white) knight for use in chess board templates. Source: http://commons.wikimedia.org/wiki/Image:Chess_tile_nl.png http://commons.wikimedia.org/wiki/Image:Chess_tile_nd.png</dc:description>
        <dc:source>https://openclipart.org/detail/18641/chess-tile---knight-by-portablejim</dc:source>
        <dc:creator>
          <cc:Agent>
            <dc:title>portablejim</dc:title>
          </cc:Agent>
        </dc:creator>
        <dc:subject>
          <rdf:Bag>
            <rdf:li>black</rdf:li>
            <rdf:li>chess</rdf:li>
            <rdf:li>externalsource</rdf:li>
            <rdf:li>game</rdf:li>
            <rdf:li>icon</rdf:li>
            <rdf:li>knight</rdf:li>
            <rdf:li>white</rdf:li>
          </rdf:Bag>
        </dc:subject>
      </cc:Work>
      <cc:License
         rdf:about="http://creativecommons.org/publicdomain/zero/1.0/">
        <cc:permits
           rdf:resource="http://creativecommons.org/ns#Reproduction" />
        <cc:permits
           rdf:resource="http://creativecommons.org/ns#Distribution" />
        <cc:permits
           rdf:resource="http://creativecommons.org/ns#DerivativeWorks" />
      </cc:License>
    </rdf:RDF>
  </metadata>
  <rect
     style="fill:#f2f2f2;fill-opacity:1;stroke:none;stroke-width:1.51181;stroke-linecap:round"
     id="rect4"
     width="150.59489"
     height="150.59488"
     x="183.97658"
     y="-283.93997"
     ry="443.05637"
     rx="443.05646"
     transform="rotate(45)" />
  <rect
     style="fill:#e6e6e6;fill-opacity:1;stroke:none;stroke-width:1.51181;stroke-linecap:round"
     id="rect5"
     width="122.98145"
     height="122.98142"
     x="197.78326"
     y="-270.13327"
     ry="225.75383"
     rx="239.66528"
     transform="rotate(45)" />
  <rect
     style="fill:#ff7c66;fill-opacity:1;stroke:none;stroke-width:1.51181;stroke-linecap:round"
     id="rect6"
     width="98.145088"
     height="98.145081"
     x="281.79443"
     y="-13.270672"
     ry="177.06377"
     rx="177.06377" />
  <path
     id="path6"
     style="fill:#e6e6e6;stroke-width:1"
     d="m 327.5509,-1.3838635 c -0.0741,0 -1.58122,1.53942204 -3.34952,3.420968 l -3.21325,3.420942 -5.40553,-3.24567 c -5.10356,-3.06408096 -5.40914,-3.221548 -5.46214,-2.81542996 -0.0301,0.236799 0.10944,2.40972796 0.30914,4.82935896 0.20145,2.419449 0.36367,4.711375 0.36367,5.093294 0,1.0687635 -1.14801,2.6639675 -3.80842,5.2837465 -3.18118,3.135614 -3.15898,3.086149 -3.17081,7.066179 -0.0104,3.121475 -0.0208,3.2098 -0.58862,4.857978 -0.75962,2.201106 -1.63312,3.769797 -4.47673,8.037754 -2.73638,4.105447 -3.45762,5.419717 -4.2121,7.672055 -1.57716,4.707815 -0.31168,8.769022 3.32194,10.66099 1.33127,0.692486 2.59511,1.010591 4.02336,1.010591 h 0.96263 l 6.8e-4,0.574138 c 0.001,1.15883 1.09605,2.252339 2.25649,2.252339 0.87798,0 2.11078,-0.52982 2.95343,-1.271771 1.04755,-0.923903 1.89374,-2.181871 3.37057,-5.011883 2.64276,-5.064675 3.83543,-6.142224 10.82386,-9.775999 3.65852,-1.902573 5.70949,-3.107281 7.74276,-4.552297 l 1.08995,-0.775637 0.1466,1.023015 c 0.25785,1.810714 0.15362,6.179161 -0.18741,7.781409 -0.66423,3.125009 -2.03509,6.303096 -3.82636,8.87341 -2.0962,3.003205 -7.0929,8.356951 -9.07767,12.291623 -2.18875,4.697859 -2.16042,17.884815 -1.74222,22.854417 l 53.11986,-4.44973 0.72739,-7.413505 c -0.41691,-12.938126 -3.34923,-33.293782 -7.05719,-44.392966 -2.65159,-7.93178 -5.3756,-12.772238 -9.55347,-16.967778 -4.52412,-4.543537 -9.8997,-6.9611415 -16.16386,-7.2686925 -1.63757,-0.08058 -4.14594,0.08656 -5.33482,0.355041 -0.0814,0.0182 -1.11464,-2.093442 -2.29822,-4.692374 -1.18183,-2.59893296 -2.20989,-4.725516 -2.2841,-4.725516 z M 313.81501,18.258565 c 0.74957,-0.02599 1.39462,0.170515 1.39462,0.540321 0,0.549393 -1.43259,2.62503 -2.65329,3.843956 -1.00869,1.006925 -1.69057,1.505293 -2.82645,2.067059 -0.8232,0.4063 -1.68327,0.791077 -1.90938,0.852915 -0.49816,0.137764 -0.56546,0.282885 1.42014,-3.057634 1.62696,-2.736385 2.25928,-3.510333 3.22911,-3.951958 0.40807,-0.184812 0.89552,-0.279427 1.34525,-0.294659 z m -14.53876,24.167822 c 0.99419,-0.0018 1.97837,0.992915 1.97837,1.996331 0,0.23316 -0.17883,0.690406 -0.39746,1.013684 -0.21861,0.325045 -1.26335,1.185395 -2.32169,1.911438 l -1.92389,1.321469 0.085,-1.763094 c 0.0676,-1.399111 0.17909,-1.967687 0.54308,-2.762638 0.48173,-1.052855 1.26805,-1.715423 2.03669,-1.71719 z"
     sodipodi:nodetypes="scccccsccccccscsscccccccccccccccccssscccccscscccccc" />
  <circle
     style="display:none;opacity:1;fill:none;stroke:#000000;stroke-width:0.398622;stroke-linecap:round;stroke-linejoin:round;stroke-dasharray:0.398622, 1.19587;stroke-dashoffset:0"
     id="path3"
     cx="54.000004"
     cy="54.000004"
     r="33.000004"
     sodipodi:insensitive="true"
     inkscape:label="bounding circle" />
  <path
     style="opacity:0.201728;mix-blend-mode:normal;fill:none;stroke:#000000;stroke-width:7.97244;stroke-linecap:round;stroke-linejoin:round;stroke-dasharray:none;filter:url(#filter2)"
     d="m 123.37988,-35.73102 11.75814,-15.908075 15.04351,6.224899 10.54774,-16.253902"
     id="path4"
     sodipodi:nodetypes="cccc" />
  <path
     style="fill:none;stroke:#ffffff;stroke-width:7.97244;stroke-linecap:round;stroke-linejoin:round;stroke-dasharray:none"
     d="m 123.14324,-35.447336 11.75814,-15.908075 15.04351,6.224899 10.54775,-16.253902"
     id="path5"
     sodipodi:nodetypes="cccc" />
  <path
     style="opacity:0.0796796;fill:none;stroke:#ffffff;stroke-width:9.96555;stroke-linecap:round;stroke-linejoin:round;stroke-dasharray:none;filter:url(#filter10)"
     d="m 122.97033,-35.36088 11.75814,-15.908075 15.04351,6.224899 10.54774,-16.253902"
     id="path8"
     sodipodi:nodetypes="cccc" />
  <g
     inkscape:groupmode="layer"
     id="layer1"
     inkscape:label="FG"
     style="display:inline">
    <rect
       style="opacity:0.15521797;fill:#000000;stroke:none;stroke-width:0.39862;stroke-linecap:round;stroke-linejoin:round;stroke-dasharray:none;stroke-dashoffset:0;fill-opacity:1;filter:url(#filter19)"
       id="rect15"
       width="8.5873575"
       height="12.229057"
       x="36.550907"
       y="58.013298"
       rx="4.2936788"
       ry="4.2936788" />
    <rect
       style="opacity:0.15521797;fill:#000000;stroke:none;stroke-width:0.398621;stroke-linecap:round;stroke-linejoin:round;stroke-dasharray:none;stroke-dashoffset:0;fill-opacity:1;filter:url(#filter18)"
       id="rect16"
       width="3.4349432"
       height="25.384489"
       x="39.127113"
       y="51.435581"
       rx="1.7174716"
       ry="1.7174716" />
    <rect
       style="opacity:0.15521797;fill:#000000;stroke:none;stroke-width:0.39862;stroke-linecap:round;stroke-linejoin:round;stroke-dasharray:none;stroke-dashoffset:0;fill-opacity:1;filter:url(#filter17)"
       id="rect2"
       width="8.5873575"
       height="18.820166"
       x="49.706326"
       y="44.726734"
       rx="4.2936788"
       ry="4.2936788" />
    <rect
       style="opacity:0.15521797;fill:#000000;stroke:none;stroke-width:0.398621;stroke-linecap:round;stroke-linejoin:round;stroke-dasharray:none;stroke-dashoffset:0;fill-opacity:1;filter:url(#filter16)"
       id="rect3"
       width="3.4349432"
       height="34.822098"
       x="52.282532"
       y="36.727619"
       rx="1.7174716"
       ry="1.7174716" />
    <rect
       style="opacity:0.15521797;fill:#000000;stroke:none;stroke-width:0.39862;stroke-linecap:round;stroke-linejoin:round;stroke-dasharray:none;stroke-dashoffset:0;fill-opacity:1;filter:url(#filter15)"
       id="rect7"
       width="8.5873575"
       height="12.229057"
       x="63.342842"
       y="38.505871"
       rx="4.2936788"
       ry="4.2936788" />
    <rect
       style="opacity:0.15521797;fill:#000000;stroke:none;stroke-width:0.398621;stroke-linecap:round;stroke-linejoin:round;stroke-dasharray:none;stroke-dashoffset:0;fill-opacity:1;filter:url(#filter14)"
       id="rect8"
       width="3.4349432"
       height="28.28163"
       x="65.919044"
       y="32.171356"
       rx="1.7174716"
       ry="1.7174716" />
    <path
       id="path19"
       style="opacity:0.0239432;fill:url(#linearGradient22);fill-opacity:1;stroke-width:0.398622;stroke-linecap:round;stroke-linejoin:round"
       d="m 68.93949,32.955486 -1.625496,1.247085 V 48.756642 L 56.161497,37.74216 54.087758,39.313274 V 64.289183 L 41.113041,51.472051 39.602077,52.616963 V 76.681762 L 86.049998,121.64944 137.33563,96.56525 Z"
       sodipodi:nodetypes="cccccccccccc" />
  </g>
  <g
     inkscape:groupmode="layer"
     id="g14"
     inkscape:label="FG"
     style="display:inline">
    <rect
       style="opacity:1;fill:#ffffff;stroke:none;stroke-width:0.39862;stroke-linecap:round;stroke-linejoin:round;stroke-dasharray:none;stroke-dashoffset:0"
       id="rect9"
       width="8.5873575"
       height="12.229057"
       x="36.550907"
       y="58.013298"
       rx="4.2936788"
       ry="4.2936788" />
    <rect
       style="opacity:1;fill:#ffffff;stroke:none;stroke-width:0.398621;stroke-linecap:round;stroke-linejoin:round;stroke-dasharray:none;stroke-dashoffset:0"
       id="rect10"
       width="3.4349432"
       height="25.384489"
       x="39.127113"
       y="51.435581"
       rx="1.7174716"
       ry="1.7174716" />
    <rect
       style="opacity:1;fill:#ffffff;stroke:none;stroke-width:0.39862;stroke-linecap:round;stroke-linejoin:round;stroke-dasharray:none;stroke-dashoffset:0"
       id="rect11"
       width="8.5873575"
       height="18.820166"
       x="49.706326"
       y="44.726734"
       rx="4.2936788"
       ry="4.2936788" />
    <rect
       style="opacity:1;fill:#ffffff;stroke:none;stroke-width:0.398621;stroke-linecap:round;stroke-linejoin:round;stroke-dasharray:none;stroke-dashoffset:0"
       id="rect12"
       width="3.4349432"
       height="34.822098"
       x="52.282532"
       y="36.727619"
       rx="1.7174716"
       ry="1.7174716" />
    <rect
       style="opacity:1;fill:#ffffff;stroke:none;stroke-width:0.39862;stroke-linecap:round;stroke-linejoin:round;stroke-dasharray:none;stroke-dashoffset:0"
       id="rect13"
       width="8.5873575"
       height="12.229057"
       x="63.342842"
       y="38.505871"
       rx="4.2936788"
       ry="4.2936788" />
    <rect
       style="opacity:1;fill:#ffffff;stroke:none;stroke-width:0.398621;stroke-linecap:round;stroke-linejoin:round;stroke-dasharray:none;stroke-dashoffset:0"
       id="rect14"
       width="3.4349432"
       height="28.28163"
       x="65.919044"
       y="32.171356"
       rx="1.7174716"
       ry="1.7174716" />
  </g>
</svg>
