<?xml version="1.0" encoding="UTF-8" standalone="no"?>
<!-- Created with Inkscape (http://www.inkscape.org/) -->

<svg
   id="svg2"
   viewBox="0 0 108.00001 108.00001"
   version="1.0"
   sodipodi:docname="icon-inkscape.svg"
   width="1024"
   height="1024"
   inkscape:version="1.4.2 (ebf0e940d0, 2025-05-08)"
   inkscape:export-filename="icon-fg.svg"
   inkscape:export-xdpi="9.2159996"
   inkscape:export-ydpi="9.2159996"
   xmlns:inkscape="http://www.inkscape.org/namespaces/inkscape"
   xmlns:sodipodi="http://sodipodi.sourceforge.net/DTD/sodipodi-0.dtd"
   xmlns="http://www.w3.org/2000/svg"
   xmlns:svg="http://www.w3.org/2000/svg"
   xmlns:rdf="http://www.w3.org/1999/02/22-rdf-syntax-ns#"
   xmlns:cc="http://creativecommons.org/ns#"
   xmlns:dc="http://purl.org/dc/elements/1.1/">
  <defs
     id="defs1" />
  <sodipodi:namedview
     id="namedview1"
     pagecolor="#ffffff"
     bordercolor="#666666"
     borderopacity="1.0"
     inkscape:showpageshadow="2"
     inkscape:pageopacity="0.0"
     inkscape:pagecheckerboard="0"
     inkscape:deskcolor="#d1d1d1"
     showgrid="false"
     inkscape:zoom="0.15248744"
     inkscape:cx="2931.3891"
     inkscape:cy="403.31192"
     inkscape:window-width="2560"
     inkscape:window-height="1371"
     inkscape:window-x="0"
     inkscape:window-y="0"
     inkscape:window-maximized="1"
     inkscape:current-layer="svg2"
     showguides="true"
     inkscape:document-units="px">
    <inkscape:page
       x="0"
       y="0"
       width="108.00001"
       height="108.00001"
       id="page1"
       margin="0"
       bleed="0"
       inkscape:export-filename="splash.png"
       inkscape:export-xdpi="96"
       inkscape:export-ydpi="96" />
    <inkscape:page
       x="208.44101"
       y="-218.23956"
       width="246.20956"
       height="499.12372"
       id="page2"
       margin="0"
       bleed="0"
       inkscape:export-filename="splash2.png"
       inkscape:export-xdpi="96"
       inkscape:export-ydpi="96" />
    <sodipodi:guide
       position="21.000002,108.00001"
       orientation="-1,0"
       id="guide6"
       inkscape:locked="false"
       inkscape:label=""
       inkscape:color="rgb(0,134,229)" />
    <sodipodi:guide
       position="87.000008,108.81004"
       orientation="-1,0"
       id="guide7"
       inkscape:locked="false"
       inkscape:label=""
       inkscape:color="rgb(0,134,229)" />
    <sodipodi:guide
       position="-2.0021476,87.000008"
       orientation="0,1"
       id="guide8"
       inkscape:locked="false"
       inkscape:label=""
       inkscape:color="rgb(0,134,229)" />
    <sodipodi:guide
       position="-2.7758784,21.000002"
       orientation="0,1"
       id="guide9"
       inkscape:locked="false"
       inkscape:label=""
       inkscape:color="rgb(0,134,229)" />
  </sodipodi:namedview>
  <rect
     style="fill:#ff7c66;fill-opacity:1;stroke:none;stroke-width:1.51181;stroke-linecap:round"
     id="rect1"
     width="108"
     height="108"
     x="0"
     y="0"
     ry="0"
     rx="0" />
  <path
     id="path2396"
     style="fill:#e6e6e6;stroke-width:0.999995"
     d="m 50.333229,24.99623 c -0.05386,0 -1.149671,1.11928 -2.435358,2.487312 l -2.33629,2.487292 -3.930239,-2.359856 c -3.71069,-2.227827 -3.932869,-2.342317 -3.971404,-2.047038 -0.02192,0.172171 0.07956,1.752062 0.224768,3.511322 0.146468,1.75913 0.264418,3.42554 0.264418,3.703225 0,0.777075 -0.834699,1.936914 -2.769023,3.841699 -2.312968,2.279836 -2.296828,2.243871 -2.305426,5.137665 -0.0075,2.269557 -0.01512,2.333777 -0.427971,3.532131 -0.552308,1.600378 -1.187413,2.740938 -3.254937,5.844078 -1.989567,2.984983 -2.51396,3.94056 -3.062527,5.578187 -1.146722,3.42295 -0.226619,6.375766 2.415308,7.751375 0.967936,0.503492 1.886848,0.73478 2.925298,0.73478 h 0.69991 l 4.92e-4,0.417443 c 0.0011,0.84256 0.796918,1.637627 1.64065,1.637627 0.638356,0 1.534703,-0.385221 2.147373,-0.924677 0.761654,-0.67175 1.376896,-1.586391 2.450667,-3.644033 1.921493,-3.682416 2.78866,-4.465878 7.869798,-7.107918 2.660031,-1.38332 4.151248,-2.259237 5.629592,-3.309877 l 0.792478,-0.563949 0.106592,0.743813 c 0.187479,1.31653 0.111693,4.492734 -0.136262,5.657694 -0.482949,2.272127 -1.479668,4.582845 -2.782063,6.451665 -1.524101,2.183567 -5.157096,6.076159 -6.600175,8.936974 -1.591399,3.415712 -1.951318,6.041855 -1.799285,7.8485 0.112996,0.908788 0.667518,1.860649 2.205982,1.869722 8.994587,0.02859 31.42712,0.06797 35.016622,0.04737 1.823919,-0.0136 2.529872,-1.57 2.488725,-3.209522 C 81.249381,75.34571 78.938188,57.27742 76.24221,49.207444 74.314294,43.440417 72.333723,39.921024 69.296088,36.870537 66.006697,33.567029 62.098229,31.809241 57.543694,31.585628 c -1.190643,-0.05858 -3.014428,0.06294 -3.878835,0.258143 -0.05916,0.01323 -0.810432,-1.522097 -1.670983,-3.411725 -0.859286,-1.889628 -1.606765,-3.43582 -1.660722,-3.43582 z m -9.987065,14.281586 c 0.544993,-0.0189 1.013994,0.123978 1.013994,0.392856 0,0.399452 -1.041606,1.908602 -1.929147,2.794857 -0.733397,0.732114 -1.229178,1.094466 -2.055051,1.502915 -0.598534,0.295412 -1.223868,0.575174 -1.388271,0.620135 -0.362202,0.100169 -0.411132,0.20568 1.032553,-2.223139 1.182932,-1.989567 1.642673,-2.552288 2.347818,-2.873384 0.296697,-0.134373 0.651112,-0.203165 0.978104,-0.21424 z M 29.775343,56.849719 c 0.722853,-0.0012 1.43843,0.721927 1.43843,1.451489 0,0.169526 -0.130026,0.50198 -0.288986,0.737028 -0.158942,0.236332 -0.918554,0.861875 -1.68805,1.389765 l -1.398818,0.960811 0.06179,-1.281907 c 0.04914,-1.017263 0.130214,-1.430664 0.394858,-2.008654 0.350258,-0.765508 0.921974,-1.247248 1.480841,-1.248532 z"
     sodipodi:nodetypes="scccccsccccccscssccccccccccccccccccssccccccscscccccccs" />
  <metadata
     id="metadata1">
    <rdf:RDF>
      <cc:Work>
        <dc:format>image/svg+xml</dc:format>
        <dc:type
           rdf:resource="http://purl.org/dc/dcmitype/StillImage" />
        <cc:license
           rdf:resource="http://creativecommons.org/publicdomain/zero/1.0/" />
        <dc:publisher>
          <cc:Agent
             rdf:about="http://openclipart.org/">
            <dc:title>Openclipart</dc:title>
          </cc:Agent>
        </dc:publisher>
        <dc:date>2008-08-26T08:54:36</dc:date>
        <dc:description>A light and dark (black and white) knight for use in chess board templates. Source: http://commons.wikimedia.org/wiki/Image:Chess_tile_nl.png http://commons.wikimedia.org/wiki/Image:Chess_tile_nd.png</dc:description>
        <dc:source>https://openclipart.org/detail/18641/chess-tile---knight-by-portablejim</dc:source>
        <dc:creator>
          <cc:Agent>
            <dc:title>portablejim</dc:title>
          </cc:Agent>
        </dc:creator>
        <dc:subject>
          <rdf:Bag>
            <rdf:li>black</rdf:li>
            <rdf:li>chess</rdf:li>
            <rdf:li>externalsource</rdf:li>
            <rdf:li>game</rdf:li>
            <rdf:li>icon</rdf:li>
            <rdf:li>knight</rdf:li>
            <rdf:li>white</rdf:li>
          </rdf:Bag>
        </dc:subject>
      </cc:Work>
      <cc:License
         rdf:about="http://creativecommons.org/publicdomain/zero/1.0/">
        <cc:permits
           rdf:resource="http://creativecommons.org/ns#Reproduction" />
        <cc:permits
           rdf:resource="http://creativecommons.org/ns#Distribution" />
        <cc:permits
           rdf:resource="http://creativecommons.org/ns#DerivativeWorks" />
      </cc:License>
    </rdf:RDF>
  </metadata>
  <rect
     style="fill:#f2f2f2;fill-opacity:1;stroke:none;stroke-width:1.51181;stroke-linecap:round"
     id="rect4"
     width="150.59489"
     height="150.59488"
     x="183.97658"
     y="-283.93997"
     ry="443.05637"
     rx="443.05646"
     transform="rotate(45)" />
  <rect
     style="fill:#e6e6e6;fill-opacity:1;stroke:none;stroke-width:1.51181;stroke-linecap:round"
     id="rect5"
     width="122.98145"
     height="122.98142"
     x="197.78326"
     y="-270.13327"
     ry="225.75383"
     rx="239.66528"
     transform="rotate(45)" />
  <rect
     style="fill:#ff7c66;fill-opacity:1;stroke:none;stroke-width:1.51181;stroke-linecap:round"
     id="rect6"
     width="98.145088"
     height="98.145081"
     x="281.79443"
     y="-13.270672"
     ry="177.06377"
     rx="177.06377" />
  <path
     id="path6"
     style="fill:#e6e6e6;stroke-width:1"
     d="m 327.5509,-1.3838635 c -0.0741,0 -1.58122,1.53942204 -3.34952,3.420968 l -3.21325,3.420942 -5.40553,-3.24567 c -5.10356,-3.06408096 -5.40914,-3.221548 -5.46214,-2.81542996 -0.0301,0.236799 0.10944,2.40972796 0.30914,4.82935896 0.20145,2.419449 0.36367,4.711375 0.36367,5.093294 0,1.0687635 -1.14801,2.6639675 -3.80842,5.2837465 -3.18118,3.135614 -3.15898,3.086149 -3.17081,7.066179 -0.0104,3.121475 -0.0208,3.2098 -0.58862,4.857978 -0.75962,2.201106 -1.63312,3.769797 -4.47673,8.037754 -2.73638,4.105447 -3.45762,5.419717 -4.2121,7.672055 -1.57716,4.707815 -0.31168,8.769022 3.32194,10.66099 1.33127,0.692486 2.59511,1.010591 4.02336,1.010591 h 0.96263 l 6.8e-4,0.574138 c 0.001,1.15883 1.09605,2.252339 2.25649,2.252339 0.87798,0 2.11078,-0.52982 2.95343,-1.271771 1.04755,-0.923903 1.89374,-2.181871 3.37057,-5.011883 2.64276,-5.064675 3.83543,-6.142224 10.82386,-9.775999 3.65852,-1.902573 5.70949,-3.107281 7.74276,-4.552297 l 1.08995,-0.775637 0.1466,1.023015 c 0.25785,1.810714 0.15362,6.179161 -0.18741,7.781409 -0.66423,3.125009 -2.03509,6.303096 -3.82636,8.87341 -2.0962,3.003205 -7.0929,8.356951 -9.07767,12.291623 -2.18875,4.697859 -2.16042,17.884815 -1.74222,22.854417 l 53.11986,-4.44973 0.72739,-7.413505 c -0.41691,-12.938126 -3.34923,-33.293782 -7.05719,-44.392966 -2.65159,-7.93178 -5.3756,-12.772238 -9.55347,-16.967778 -4.52412,-4.543537 -9.8997,-6.9611415 -16.16386,-7.2686925 -1.63757,-0.08058 -4.14594,0.08656 -5.33482,0.355041 -0.0814,0.0182 -1.11464,-2.093442 -2.29822,-4.692374 -1.18183,-2.59893296 -2.20989,-4.725516 -2.2841,-4.725516 z M 313.81501,18.258565 c 0.74957,-0.02599 1.39462,0.170515 1.39462,0.540321 0,0.549393 -1.43259,2.62503 -2.65329,3.843956 -1.00869,1.006925 -1.69057,1.505293 -2.82645,2.067059 -0.8232,0.4063 -1.68327,0.791077 -1.90938,0.852915 -0.49816,0.137764 -0.56546,0.282885 1.42014,-3.057634 1.62696,-2.736385 2.25928,-3.510333 3.22911,-3.951958 0.40807,-0.184812 0.89552,-0.279427 1.34525,-0.294659 z m -14.53876,24.167822 c 0.99419,-0.0018 1.97837,0.992915 1.97837,1.996331 0,0.23316 -0.17883,0.690406 -0.39746,1.013684 -0.21861,0.325045 -1.26335,1.185395 -2.32169,1.911438 l -1.92389,1.321469 0.085,-1.763094 c 0.0676,-1.399111 0.17909,-1.967687 0.54308,-2.762638 0.48173,-1.052855 1.26805,-1.715423 2.03669,-1.71719 z"
     sodipodi:nodetypes="scccccsccccccscsscccccccccccccccccssscccccscscccccc" />
</svg>
