<?xml version="1.0" encoding="UTF-8" standalone="no"?>
<!-- Created with Inkscape (http://www.inkscape.org/) -->

<svg
   id="svg2"
   viewBox="0 0 500 500"
   version="1.0"
   sodipodi:docname="icon.svg"
   width="500"
   height="500"
   inkscape:version="1.4.2 (ebf0e940d0, 2025-05-08)"
   inkscape:export-filename="favicon2.png"
   inkscape:export-xdpi="9.2159996"
   inkscape:export-ydpi="9.2159996"
   xmlns:inkscape="http://www.inkscape.org/namespaces/inkscape"
   xmlns:sodipodi="http://sodipodi.sourceforge.net/DTD/sodipodi-0.dtd"
   xmlns="http://www.w3.org/2000/svg"
   xmlns:svg="http://www.w3.org/2000/svg"
   xmlns:rdf="http://www.w3.org/1999/02/22-rdf-syntax-ns#"
   xmlns:cc="http://creativecommons.org/ns#"
   xmlns:dc="http://purl.org/dc/elements/1.1/">
  <defs
     id="defs1" />
  <sodipodi:namedview
     id="namedview1"
     pagecolor="#ffffff"
     bordercolor="#666666"
     borderopacity="1.0"
     inkscape:showpageshadow="2"
     inkscape:pageopacity="0.0"
     inkscape:pagecheckerboard="0"
     inkscape:deskcolor="#d1d1d1"
     showgrid="false"
     inkscape:zoom="0.30497487"
     inkscape:cx="-952.53749"
     inkscape:cy="-34.429066"
     inkscape:window-width="2560"
     inkscape:window-height="1371"
     inkscape:window-x="0"
     inkscape:window-y="0"
     inkscape:window-maximized="1"
     inkscape:current-layer="svg2">
    <inkscape:page
       x="0"
       y="0"
       width="500"
       height="500"
       id="page1"
       margin="0"
       bleed="0" />
    <inkscape:page
       x="-401.55051"
       y="-1137.7986"
       width="1284"
       height="2778"
       id="page2"
       margin="0"
       bleed="0" />
  </sodipodi:namedview>
  <rect
     style="fill:#f2f2f2;fill-opacity:1;stroke:none;stroke-width:1.51181;stroke-linecap:round"
     id="rect3"
     width="852.48438"
     height="852.48425"
     x="-72.688782"
     y="-426.24216"
     ry="443.05643"
     rx="443.05649"
     transform="rotate(45)" />
  <rect
     style="fill:#e6e6e6;fill-opacity:1;stroke:none;stroke-width:1.51181;stroke-linecap:round"
     id="rect2"
     width="696.17078"
     height="696.17065"
     x="5.4680185"
     y="-348.08536"
     ry="225.75385"
     rx="239.66528"
     transform="rotate(45)" />
  <rect
     style="fill:#ff7c66;fill-opacity:1;stroke:none;stroke-width:1.51181;stroke-linecap:round"
     id="rect1"
     width="555.57758"
     height="555.57751"
     x="-27.788761"
     y="-27.788761"
     ry="177.06378"
     rx="177.06378" />
  <path
     id="path2396"
     style="fill:#e6e6e6"
     d="m 231.22852,39.5 c -0.42,0 -8.95094,8.714234 -18.96094,19.365234 l -18.18946,19.365235 -30.5996,-18.373047 c -28.89,-17.345 -30.61993,-18.2365 -30.91993,-15.9375 -0.17,1.34 0.62,13.640891 1.75,27.33789 1.14,13.696 2.0586,26.670036 2.0586,28.832028 0,6.05 -6.4986,15.08016 -21.5586,29.91016 -18.007993,17.75 -17.882215,17.47 -17.949215,40 -0.052,17.67 -0.113031,18.17 -3.332031,27.5 -4.3,12.46 -9.244797,21.34 -25.341797,45.5 -15.49,23.24 -19.57275,30.67969 -23.84375,43.42969 -8.928,26.65 -1.764313,49.63961 18.804687,60.34961 7.536,3.92 14.690391,5.7207 22.775391,5.7207 h 5.449219 l 0.0039,3.25 c 0.008,6.56 6.204433,12.75 12.773436,12.75 4.97,0 11.94875,-2.99922 16.71875,-7.19922 5.93,-5.23 10.72008,-12.35109 19.08008,-28.37109 14.96,-28.67 21.71148,-34.76985 61.27148,-55.33985 20.71,-10.77 32.32008,-17.58953 43.83008,-25.76953 l 6.16992,-4.39062 0.83008,5.79101 c 1.46,10.25 0.86945,34.97883 -1.06055,44.04883 -3.76,17.69 -11.52016,35.68047 -21.66016,50.23047 -11.86604,17.0004 -40.1513,47.30675 -51.38671,69.58008 -12.39,26.59352 -12.22958,101.24203 -9.86227,129.37379 l 300.69972,-25.1889 4.11763,-41.96614 C 470.53648,406.05883 453.93727,290.83 432.94727,228 c -15.01,-44.9 -30.43008,-72.30078 -54.08008,-96.05078 -25.61,-25.72 -56.04,-39.405486 -91.5,-41.146486 -9.27,-0.456 -23.46922,0.489766 -30.19922,2.009766 -0.46,0.103 -6.30977,-11.8505 -13.00977,-26.5625 -6.69,-14.712 -12.50968,-26.75 -12.92968,-26.75 z m -77.75586,111.19141 c 4.24316,-0.14356 7.89453,0.96484 7.89453,3.05859 0,3.11 -8.10953,14.85977 -15.01953,21.75977 -5.71,5.7 -9.57,8.52117 -16,11.70117 -4.66,2.3 -9.5286,4.47812 -10.8086,4.82812 -2.82,0.78 -3.20092,1.60141 8.03906,-17.30859 9.21002,-15.49 12.7893,-19.87109 18.2793,-22.37109 2.31,-1.04626 5.06934,-1.58184 7.61524,-1.66797 z M 71.171875,287.5 c 5.628,-0.01 11.199219,5.62078 11.199219,11.30078 0,1.32 -1.012,3.90828 -2.25,5.73828 -1.237,1.84 -7.151578,6.71031 -13.142578,10.82032 l -10.890625,7.48046 0.480468,-9.98046 c 0.382,-7.92 1.013219,-11.13868 3.074219,-15.63868 2.727,-5.96 7.178297,-9.7107 11.529297,-9.7207 z"
     sodipodi:nodetypes="scccccsccccccscsscccccccccccccccccssscccccscscccccc" />
  <metadata
     id="metadata1">
    <rdf:RDF>
      <cc:Work>
        <dc:format>image/svg+xml</dc:format>
        <dc:type
           rdf:resource="http://purl.org/dc/dcmitype/StillImage" />
        <cc:license
           rdf:resource="http://creativecommons.org/publicdomain/zero/1.0/" />
        <dc:publisher>
          <cc:Agent
             rdf:about="http://openclipart.org/">
            <dc:title>Openclipart</dc:title>
          </cc:Agent>
        </dc:publisher>
        <dc:date>2008-08-26T08:54:36</dc:date>
        <dc:description>A light and dark (black and white) knight for use in chess board templates. Source: http://commons.wikimedia.org/wiki/Image:Chess_tile_nl.png http://commons.wikimedia.org/wiki/Image:Chess_tile_nd.png</dc:description>
        <dc:source>https://openclipart.org/detail/18641/chess-tile---knight-by-portablejim</dc:source>
        <dc:creator>
          <cc:Agent>
            <dc:title>portablejim</dc:title>
          </cc:Agent>
        </dc:creator>
        <dc:subject>
          <rdf:Bag>
            <rdf:li>black</rdf:li>
            <rdf:li>chess</rdf:li>
            <rdf:li>externalsource</rdf:li>
            <rdf:li>game</rdf:li>
            <rdf:li>icon</rdf:li>
            <rdf:li>knight</rdf:li>
            <rdf:li>white</rdf:li>
          </rdf:Bag>
        </dc:subject>
      </cc:Work>
      <cc:License
         rdf:about="http://creativecommons.org/publicdomain/zero/1.0/">
        <cc:permits
           rdf:resource="http://creativecommons.org/ns#Reproduction" />
        <cc:permits
           rdf:resource="http://creativecommons.org/ns#Distribution" />
        <cc:permits
           rdf:resource="http://creativecommons.org/ns#DerivativeWorks" />
      </cc:License>
    </rdf:RDF>
  </metadata>
</svg>
